<?xml version="1.0" encoding="utf-8"?>
<!-- Generator: Adobe Illustrator 21.0.2, SVG Export Plug-In . SVG Version: 6.00 Build 0)  -->
<svg version="1.1" id="Layer_1" xmlns="http://www.w3.org/2000/svg" xmlns:xlink="http://www.w3.org/1999/xlink" x="0px" y="0px"
	 viewBox="0 0 276.1 97.1" style="enable-background:new 0 0 276.1 97.1;" xml:space="preserve">
<style type="text/css">
	.st0{fill:#0B121F;}
	.st1{clip-path:url(#SVGID_2_);}
	.st2{fill:#999082;}
</style>
<g>
	<path class="st0" d="M42.1,16.1c0-0.2,0.1-0.3,0.3-0.4c0.3-0.1,1.2-0.2,2.3-0.2c3.6,0,5.8,2.5,5.8,6.7c0,2.6-0.9,4.4-2.1,5.2
		c-0.8,0.5-1.7,0.6-2.5,0.6c-1.5,0-3-0.2-3.5-0.5c-0.2-0.1-0.2-0.2-0.2-0.4V16.1z M36.7,14.8c0.3,0,0.9,0,1.2,0.1
		c1.1,0.2,1.4,0.8,1.4,1.9c0.1,1.1,0.1,2,0.1,7.3v5.9c0,3.2,0,5.9-0.2,7.3c-0.1,1-0.3,1.7-1,1.9c-0.3,0.1-0.7,0.1-1,0.1
		c-0.2,0-0.3,0.1-0.3,0.2c0,0.2,0.2,0.3,0.5,0.3c1,0,3.1-0.1,3.2-0.1c0.2,0,2.3,0.1,4.2,0.1c0.4,0,0.5-0.1,0.5-0.3
		c0-0.1-0.1-0.2-0.3-0.2c-0.3,0-1-0.1-1.5-0.1c-1-0.1-1.2-0.9-1.3-1.9c-0.2-1.4-0.2-4.1-0.2-7.3v-0.8c0-0.2,0.1-0.3,0.2-0.3l4.2,0.1
		c0.2,0,0.3,0.1,0.4,0.2c0.7,0.9,2.3,3.1,3.7,5c1.9,2.5,3.1,4.2,4.6,5c0.9,0.5,1.7,0.6,3.6,0.6h2.4c0.6,0,0.8-0.1,0.8-0.3
		c0-0.1-0.1-0.2-0.3-0.2c-0.2,0-0.7,0-1.3-0.1c-0.8-0.1-2.3-0.5-4.1-2.4c-2-2.1-4.3-5.1-7-8.6c3-2.8,4.1-5.3,4.1-7.8
		c0-2.3-1.5-4-2.3-4.6c-1.8-1.3-4.1-1.5-6.2-1.5c-1,0-3.6,0.1-4,0.1c-0.2,0-2.3-0.1-3.8-0.1c-0.4,0-0.5,0.1-0.5,0.3
		C36.4,14.8,36.6,14.8,36.7,14.8"/>
	<path class="st0" d="M63.8,14.8c0.3,0,0.9,0,1.1,0.1c1.1,0.2,1.4,0.8,1.5,1.9c0.1,1.1,0.1,2,0.1,7.3v5.9c0,3.2,0,5.9-0.2,7.3
		c-0.1,1-0.3,1.7-1,1.9c-0.3,0.1-0.7,0.1-1,0.1c-0.2,0-0.3,0.1-0.3,0.2c0,0.2,0.2,0.3,0.5,0.3c0.5,0,1.3-0.1,2-0.1
		c0.7,0,1.3,0,1.4,0c0.5,0,1.3,0,2.6,0.1c1.3,0,3.2,0.1,5.7,0.1c1.3,0,1.6,0,1.8-0.9c0.2-0.7,0.4-3,0.4-3.3c0-0.2,0-0.5-0.2-0.5
		c-0.2,0-0.2,0.1-0.3,0.5c-0.2,1.4-0.6,2.1-1.5,2.4c-0.9,0.4-2.4,0.4-3.2,0.4c-3.3,0-3.8-0.4-3.9-2.8c0-0.7,0-4.6,0-5.8v-3
		c0-0.1,0.1-0.2,0.2-0.2c0.6,0,3.9,0.1,4.8,0.2c1.3,0.1,1.6,0.7,1.8,1.2c0.1,0.4,0.1,0.8,0.1,1.1c0,0.2,0.1,0.3,0.2,0.3
		c0.2,0,0.2-0.4,0.2-0.6c0-0.2,0.1-1.5,0.1-2.2c0.1-1.1,0.3-1.7,0.3-1.9c0-0.2-0.1-0.3-0.2-0.3c-0.1,0-0.3,0.2-0.5,0.4
		c-0.3,0.3-0.8,0.4-1.6,0.5c-0.8,0.1-4.9,0.1-5.4,0.1c-0.2,0-0.2-0.1-0.2-0.3V16c0-0.2,0.1-0.3,0.2-0.3c0.4,0,4.1,0,4.6,0.1
		c1.8,0.2,2.2,0.6,2.4,1.1c0.2,0.4,0.2,1,0.2,1.2c0,0.3,0.1,0.4,0.3,0.4c0.1,0,0.2-0.2,0.2-0.4c0.1-0.4,0.1-1.9,0.2-2.2
		c0.1-0.9,0.3-1.4,0.3-1.6c0-0.2,0-0.3-0.1-0.3c-0.2,0-0.3,0.1-0.5,0.2c-0.3,0.1-0.8,0.1-1.4,0.2c-0.8,0-7.5,0-7.7,0l-1.4-0.1
		c-0.7,0-1.7,0-2.4,0c-0.4,0-0.5,0.1-0.5,0.3C63.5,14.8,63.7,14.8,63.8,14.8"/>
	<path class="st0" d="M84.4,14.8c0.3,0,0.9,0,1.1,0.1c1.1,0.2,1.4,0.8,1.5,1.9c0.1,1.1,0.1,2,0.1,7.3v5.9c0,3.2,0,5.9-0.2,7.3
		c-0.1,1-0.3,1.7-1,1.9c-0.3,0.1-0.7,0.1-1,0.1c-0.2,0-0.3,0.1-0.3,0.2c0,0.2,0.2,0.3,0.5,0.3c0.5,0,1.3-0.1,2-0.1
		c0.7,0,1.3,0,1.3,0c0.5,0,1.3,0,2.6,0.1c1.3,0,3.2,0.1,5.7,0.1c1.3,0,1.6,0,1.8-0.9c0.2-0.7,0.4-3,0.4-3.3c0-0.2,0-0.5-0.2-0.5
		c-0.2,0-0.2,0.1-0.3,0.5c-0.2,1.4-0.6,2.1-1.5,2.4c-0.9,0.4-2.4,0.4-3.2,0.4c-3.3,0-3.8-0.4-3.9-2.8c0-0.7,0-4.6,0-5.8v-3
		c0-0.1,0.1-0.2,0.2-0.2c0.6,0,3.9,0.1,4.8,0.2c1.3,0.1,1.6,0.7,1.8,1.2c0.1,0.4,0.1,0.8,0.1,1.1c0,0.2,0.1,0.3,0.2,0.3
		c0.2,0,0.2-0.4,0.2-0.6c0-0.2,0.1-1.5,0.1-2.2c0.1-1.1,0.3-1.7,0.3-1.9c0-0.2-0.1-0.3-0.2-0.3c-0.1,0-0.3,0.2-0.5,0.4
		c-0.3,0.3-0.8,0.4-1.6,0.5c-0.8,0.1-4.9,0.1-5.4,0.1c-0.2,0-0.2-0.1-0.2-0.3V16c0-0.2,0.1-0.3,0.2-0.3c0.4,0,4.1,0,4.6,0.1
		c1.8,0.2,2.2,0.6,2.4,1.1c0.2,0.4,0.2,1,0.2,1.2c0,0.3,0.1,0.4,0.3,0.4c0.1,0,0.2-0.2,0.2-0.4c0.1-0.4,0.1-1.9,0.2-2.2
		c0.1-0.9,0.3-1.4,0.3-1.6c0-0.2,0-0.3-0.1-0.3c-0.2,0-0.3,0.1-0.5,0.2c-0.3,0.1-0.8,0.1-1.4,0.2c-0.8,0-7.5,0-7.7,0l-1.4-0.1
		c-0.7,0-1.6,0-2.4,0c-0.4,0-0.5,0.1-0.5,0.3C84.1,14.8,84.3,14.8,84.4,14.8"/>
	<path class="st0" d="M126.6,38c1.8,1.8,2.2,2.2,2.5,2.2c0.2,0,0.3-0.2,0.3-2.4l0.1-19.8c0-2,0.1-2.8,1.2-3c0.4-0.1,0.6-0.1,0.8-0.1
		c0.2,0,0.4-0.1,0.4-0.2c0-0.2-0.2-0.2-0.6-0.2c-1.4,0-2.5,0.1-2.9,0.1c-0.4,0-2-0.1-3.5-0.1c-0.4,0-0.7,0-0.7,0.2
		c0,0.1,0,0.2,0.3,0.2c0.3,0,1.1,0,1.7,0.2c1,0.3,1.3,1,1.3,3.2l0.4,17.1c-1.1-1.1-4.8-5.2-8.1-8.8c-5.2-5.6-10.2-11-10.7-11.6
		c-0.3-0.3-0.9-1.1-1.2-1.1c-0.3,0-0.4,0.4-0.4,1.7l0,19.3c0,3.1-0.2,4-1,4.3c-0.5,0.2-1.1,0.2-1.4,0.2c-0.2,0-0.3,0.1-0.3,0.2
		c0,0.2,0.2,0.3,0.5,0.3c1.5,0,2.9-0.1,3.2-0.1c0.3,0,1.7,0.1,3.6,0.1c0.4,0,0.6-0.1,0.6-0.3c0-0.1-0.1-0.2-0.3-0.2
		c-0.3,0-1,0-1.7-0.2c-0.9-0.3-1.3-1.1-1.3-3.9L109,19.1c1.1,1.2,4.9,5.5,8.8,9.7C121.3,32.7,126.2,37.6,126.6,38"/>
	<path class="st0" d="M65.3,47.1C65.3,47,65.3,47,65.3,47.1C65.4,47,65.4,47,65.3,47.1l1,2.4c0,0,0,0.1,0,0.1h-1.9c0,0-0.1,0,0-0.1
		L65.3,47.1z M61.6,52.3c-0.1,0-0.1,0-0.1,0.1c0,0.1,0.1,0.1,0.2,0.1c0.5,0,1,0,1.1,0c0.3,0,0.8,0,1.1,0c0.1,0,0.2,0,0.2-0.1
		c0-0.1,0-0.1-0.1-0.1h-0.1c-0.3,0-0.4-0.1-0.4-0.3c0-0.1,0.1-0.3,0.2-0.6l0.5-1.3c0-0.1,0-0.1,0.1-0.1h2.3c0,0,0.1,0,0.1,0.1
		l0.8,1.9c0.1,0.1,0,0.2-0.1,0.2c-0.1,0-0.1,0-0.1,0.1c0,0.1,0.1,0.1,0.3,0.1c0.8,0,1.5,0,1.9,0c0.4,0,0.4,0,0.4-0.1
		c0-0.1,0-0.1-0.1-0.1c-0.1,0-0.2,0-0.4,0c-0.2,0-0.5-0.2-0.8-1c-0.6-1.4-2.3-5.4-2.5-5.9c-0.1-0.2-0.1-0.3-0.3-0.3
		c-0.1,0-0.2,0.1-0.3,0.4l-2.6,6c-0.2,0.5-0.4,0.8-0.8,0.8C61.8,52.3,61.7,52.3,61.6,52.3"/>
	<path class="st0" d="M77.2,45.3c0,0.1,0,0.1,0.2,0.1c0.1,0,0.4,0,0.5,0.1c0.2,0.1,0.3,0.3,0.4,0.9l0.1,4.3h0
		c-0.1-0.1-1.5-1.5-2.1-2.2c-1.5-1.4-2.9-2.9-3.1-3.1c-0.2-0.2-0.3-0.3-0.4-0.3c-0.1,0-0.2,0.1-0.2,0.3l-0.1,5.7
		c0,0.8,0,1.1-0.3,1.2c-0.1,0-0.3,0-0.4,0c-0.1,0-0.2,0-0.2,0.1c0,0.1,0.1,0.1,0.2,0.1c0.5,0,1,0,1.1,0c0.2,0,0.6,0,1.3,0
		c0.1,0,0.2,0,0.2-0.1c0-0.1-0.1-0.1-0.2-0.1c-0.2,0-0.4,0-0.5-0.1c-0.2-0.1-0.3-0.3-0.3-1l-0.1-3.9h0c0.2,0.2,1.2,1.3,2.3,2.4
		c1,1,2.3,2.2,2.9,2.8c0.1,0.1,0.2,0.2,0.4,0.2c0.1,0,0.2-0.1,0.2-0.3l0.1-6c0-0.5,0.1-0.7,0.4-0.8c0.1,0,0.2,0,0.3,0
		c0.1,0,0.2-0.1,0.2-0.1c0-0.1-0.1-0.1-0.2-0.1c-0.5,0-0.8,0-1,0c-0.2,0-0.7,0-1.3,0C77.3,45.3,77.2,45.3,77.2,45.3"/>
	<path class="st0" d="M85.3,47.9c0-0.7,0-1.5,0-1.9c0-0.1,0-0.2,0.1-0.2c0.1,0,0.4-0.1,0.6-0.1c0.8,0,1.9,0.1,2.8,0.9
		c0.4,0.4,0.9,1.2,0.9,2.4c0,1-0.2,1.8-0.8,2.4c-0.6,0.5-1.3,0.7-2.2,0.7c-0.8,0-1.2-0.2-1.3-0.4c-0.1-0.1-0.1-0.4-0.1-0.7
		c0-0.2,0-0.9,0-1.9V47.9z M83.5,45.5c0.3,0.1,0.4,0.2,0.4,0.5c0,0.3,0,0.6,0,2v1.7c0,0.9,0,1.6-0.1,2c0,0.3-0.1,0.5-0.3,0.5
		c-0.1,0-0.2,0-0.3,0c-0.1,0-0.2,0.1-0.2,0.1c0,0.1,0.1,0.1,0.2,0.1c0.2,0,0.4,0,0.7,0c0.2,0,0.5,0,0.6,0c0.3,0,0.6,0,1,0.1
		c0.4,0,0.8,0.1,1.2,0.1c1.8,0,2.9-0.7,3.3-1.1c0.6-0.6,1.1-1.5,1.1-2.7c0-1.1-0.4-1.9-0.9-2.4c-1.1-1.1-2.7-1.1-4-1.1
		c-0.6,0-1.3,0-1.6,0c-0.3,0-0.9,0-1.4,0c-0.1,0-0.2,0-0.2,0.1c0,0.1,0.1,0.1,0.2,0.1C83.2,45.4,83.4,45.5,83.5,45.5"/>
	<path class="st0" d="M126,45.4c-0.3,0-2.3-0.1-3.8-0.1c-0.4,0-0.5,0.1-0.5,0.3c0,0.1,0.1,0.2,0.3,0.2c0.3,0,0.9,0,1.1,0.1
		c1.1,0.2,1.4,0.8,1.5,1.9c0.1,1.1,0.1,2,0.1,7.3v5.9c0,3.2,0,5.9-0.2,7.3c-0.1,1-0.3,1.7-1,1.9c-0.3,0.1-0.7,0.1-1,0.1
		c-0.2,0-0.3,0.1-0.3,0.2c0,0.2,0.2,0.3,0.5,0.3c1,0,3.1-0.1,3.2-0.1c0.2,0,2.3,0.1,4.2,0.1c0.4,0,0.5-0.1,0.5-0.3
		c0-0.1-0.1-0.2-0.3-0.2c-0.3,0-1-0.1-1.5-0.1c-1-0.1-1.2-0.9-1.3-1.9c-0.2-1.4-0.2-4.1-0.2-7.3V47.2c0-0.3,0.1-0.6,0.3-0.6
		c0.3-0.1,0.9-0.2,1.4-0.2c0.8,0,2.8-0.1,4.6,1.7c1.8,1.8,1.9,4.1,1.9,5.2c0,3.1-2.6,5.5-5.8,5.5c-0.7,0-0.9,0-0.9,0.3
		c0,0.2,0.2,0.2,0.4,0.2c0.2,0,0.5,0,0.7,0c4.8,0,8.3-3.2,8.3-8c0-1.8-0.9-3.3-1.7-4c-0.5-0.5-2.1-1.9-6.3-1.9
		C128.7,45.3,126.8,45.4,126,45.4"/>
	<path class="st0" d="M143.5,45.8c0.2,0,0.7,0,1,0.1c0.7,0.2,1.1,0.7,1.1,1.9c0.1,1.1,0.1,2,0.1,7.3v5.9c0,3.2,0,5.9-0.2,7.3
		c-0.1,1-0.3,1.7-1,1.9c-0.3,0.1-0.7,0.1-1,0.1c-0.2,0-0.3,0.1-0.3,0.2c0,0.2,0.2,0.3,0.5,0.3c1,0,3.1-0.1,3.3-0.1
		c0.2,0,2.3,0.1,4.1,0.1c0.4,0,0.5-0.1,0.5-0.3c0-0.1-0.1-0.2-0.3-0.2c-0.3,0-1-0.1-1.5-0.1c-1-0.1-1.2-0.9-1.3-1.9
		c-0.2-1.4-0.2-4.1-0.2-7.3v-5.9c0-5.3,0-6.2,0.1-7.3c0.1-1.2,0.3-1.7,1.2-1.9c0.4-0.1,0.6-0.1,0.8-0.1c0.1,0,0.3-0.1,0.3-0.2
		c0-0.2-0.2-0.3-0.5-0.3c-1,0-3.1,0.1-3.3,0.1c-0.2,0-2.3-0.1-3.4-0.1c-0.4,0-0.5,0.1-0.5,0.3C143.3,45.7,143.4,45.8,143.5,45.8"/>
	<path class="st0" d="M158,45.8c0.3,0,0.9,0,1.1,0.1c1.1,0.2,1.4,0.8,1.5,1.9c0.1,1.1,0.1,2,0.1,7.3v5.9c0,3.2,0,5.9-0.2,7.3
		c-0.1,1-0.3,1.7-1,1.9c-0.3,0.1-0.7,0.1-1,0.1c-0.2,0-0.3,0.1-0.3,0.2c0,0.2,0.2,0.3,0.5,0.3c0.5,0,1.3-0.1,2-0.1
		c0.7,0,1.3,0,1.3,0c0.5,0,1.3,0,2.6,0.1c1.3,0,3.2,0.1,5.7,0.1c1.3,0,1.6,0,1.8-0.9c0.2-0.7,0.4-3,0.4-3.3c0-0.2,0-0.5-0.2-0.5
		c-0.2,0-0.2,0.1-0.3,0.5c-0.2,1.4-0.6,2.1-1.5,2.4c-0.9,0.4-2.4,0.4-3.2,0.4c-3.3,0-3.8-0.4-3.9-2.8c0-0.7,0-4.6,0-5.8v-3
		c0-0.1,0.1-0.2,0.2-0.2c0.6,0,3.9,0.1,4.8,0.2c1.3,0.1,1.6,0.7,1.8,1.2c0.1,0.4,0.1,0.8,0.1,1.1c0,0.2,0.1,0.3,0.2,0.3
		c0.2,0,0.2-0.4,0.2-0.6c0-0.2,0.1-1.5,0.1-2.2c0.1-1.1,0.3-1.7,0.3-1.9c0-0.2-0.1-0.3-0.2-0.3c-0.1,0-0.3,0.2-0.5,0.4
		c-0.3,0.3-0.8,0.4-1.6,0.5c-0.8,0.1-4.9,0.1-5.4,0.1c-0.2,0-0.2-0.1-0.2-0.3V47c0-0.2,0.1-0.3,0.2-0.3c0.4,0,4.1,0,4.6,0.1
		c1.8,0.2,2.2,0.6,2.4,1.1c0.2,0.4,0.2,1,0.2,1.2c0,0.3,0.1,0.4,0.3,0.4c0.1,0,0.2-0.2,0.2-0.4c0.1-0.4,0.1-1.9,0.2-2.2
		c0.1-0.9,0.3-1.3,0.3-1.6c0-0.2,0-0.3-0.1-0.3c-0.2,0-0.3,0.1-0.5,0.2c-0.3,0.1-0.8,0.1-1.4,0.2c-0.8,0-7.5,0-7.7,0l-1.4-0.1
		c-0.7,0-1.7,0-2.4,0c-0.4,0-0.5,0.1-0.5,0.3C157.7,45.7,157.8,45.8,158,45.8"/>
	<path class="st0" d="M181.4,67.7c3.7,3.3,8.5,3.6,11.1,3.6c2,0,5-0.4,7.2-1.5c0.4-0.2,0.4-0.3,0.4-1.8v-3.8c0-1.4,0-2.4,0.1-3.5
		c0.1-1.2,0.3-1.8,1.3-1.9c0.4-0.1,0.6-0.1,0.8-0.1c0.1,0,0.3-0.1,0.3-0.2c0-0.2-0.2-0.3-0.5-0.3c-1,0-3.1,0.1-3.3,0.1
		c-0.2,0-2.3-0.1-3.8-0.1c-0.4,0-0.5,0.1-0.5,0.3c0,0.1,0.1,0.2,0.3,0.2c0.3,0,0.9,0,1.1,0.1c1.4,0.4,1.5,0.7,1.5,3.5V68
		c0,0.6-0.2,0.9-0.7,1.2c-0.9,0.5-2.6,0.7-3.8,0.7c-3.1,0-6.2-1-8.8-3.6c-1.2-1.2-3.6-4.6-3.6-9.4c0-3.9,1.4-7,3.3-8.6
		c2.6-2,5.1-2.2,7.2-2.2c4.4,0,7.1,1.5,7.9,2.7c0.5,0.8,0.7,1.8,0.7,2.2c0,0.3,0.1,0.5,0.2,0.5c0.2,0,0.3-0.2,0.3-0.7
		c0-3.4,0.2-4.3,0.2-4.8c0-0.1-0.1-0.3-0.4-0.3c-0.8,0-2-0.2-2.7-0.3c-0.6-0.1-3-0.6-5.2-0.6c-2.6,0-5.9,0.2-9,2.1
		c-3,1.9-5.6,5.7-5.6,11.1C177.4,62.3,179.3,65.9,181.4,67.7"/>
	<path class="st0" d="M207.7,45.8c0.3,0,0.9,0,1.2,0.1c1.1,0.2,1.4,0.8,1.4,1.9c0.1,1.1,0.1,2,0.1,7.3v5.9c0,3.2,0,5.9-0.2,7.3
		c-0.1,1-0.3,1.7-1,1.9c-0.3,0.1-0.7,0.1-1,0.1c-0.2,0-0.3,0.1-0.3,0.2c0,0.2,0.2,0.3,0.5,0.3c0.5,0,1.3-0.1,2-0.1
		c0.7,0,1.3,0,1.4,0c0.5,0,1.3,0,2.6,0.1c1.3,0,3.2,0.1,5.7,0.1c1.3,0,1.6,0,1.8-0.9c0.2-0.7,0.4-3,0.4-3.3c0-0.2,0-0.5-0.2-0.5
		c-0.2,0-0.2,0.1-0.3,0.5c-0.2,1.4-0.6,2.1-1.5,2.4c-0.9,0.4-2.4,0.4-3.2,0.4c-3.3,0-3.8-0.4-3.9-2.8c0-0.7,0-4.6,0-5.8v-3
		c0-0.1,0.1-0.2,0.2-0.2c0.6,0,3.9,0.1,4.8,0.2c1.3,0.1,1.6,0.7,1.8,1.2c0.1,0.4,0.1,0.8,0.1,1.1c0,0.2,0.1,0.3,0.2,0.3
		c0.2,0,0.2-0.4,0.2-0.6c0-0.2,0.1-1.5,0.1-2.2c0.1-1.1,0.3-1.7,0.3-1.9c0-0.2-0.1-0.3-0.2-0.3c-0.1,0-0.3,0.2-0.5,0.4
		c-0.3,0.3-0.8,0.4-1.6,0.5c-0.8,0.1-4.9,0.1-5.4,0.1c-0.2,0-0.2-0.1-0.2-0.3V47c0-0.2,0.1-0.3,0.2-0.3c0.4,0,4,0,4.6,0.1
		c1.8,0.2,2.2,0.6,2.4,1.1c0.2,0.4,0.2,1,0.2,1.2c0,0.3,0.1,0.4,0.3,0.4c0.1,0,0.2-0.2,0.2-0.4c0.1-0.4,0.1-1.9,0.2-2.2
		c0.1-0.9,0.3-1.3,0.3-1.6c0-0.2,0-0.3-0.1-0.3c-0.2,0-0.3,0.1-0.5,0.2c-0.3,0.1-0.8,0.1-1.4,0.2c-0.8,0-7.5,0-7.7,0l-1.4-0.1
		c-0.7,0-1.7,0-2.4,0c-0.4,0-0.5,0.1-0.5,0.3C207.4,45.7,207.5,45.8,207.7,45.8"/>
	<path class="st0" d="M228.2,45.8c0.3,0,0.9,0,1.1,0.1c1.1,0.2,1.4,0.8,1.5,1.9c0.1,1.1,0.1,2,0.1,7.3v5.9c0,3.2,0,5.9-0.2,7.3
		c-0.1,1-0.3,1.7-1,1.9c-0.3,0.1-0.7,0.1-1,0.1c-0.2,0-0.3,0.1-0.3,0.2c0,0.2,0.2,0.3,0.5,0.3c0.5,0,1.2,0,1.9-0.1
		c0.7,0,1.2,0,1.4,0c1,0,2,0,3.5,0.1c1.4,0,3.2,0.1,5.6,0.1c1.8,0,1.9-0.1,2.1-0.9c0.3-1,0.5-3,0.5-3.4c0-0.4,0-0.5-0.2-0.5
		c-0.2,0-0.3,0.2-0.3,0.4c-0.1,0.6-0.4,1.5-0.9,2c-0.8,1-2.3,1-4.1,1c-2.6,0-3.5-0.2-4-0.8c-0.6-0.6-0.7-2.8-0.7-7.7v-6
		c0-5.3,0-6.2,0.1-7.3c0.1-1.2,0.3-1.7,1.3-1.9c0.4-0.1,0.9-0.1,1.1-0.1c0.1,0,0.3-0.1,0.3-0.2c0-0.2-0.2-0.3-0.5-0.3
		c-1,0-3.5,0.1-3.6,0.1c-0.2,0-2.3-0.1-3.8-0.1c-0.4,0-0.5,0.1-0.5,0.3C228,45.7,228.1,45.8,228.2,45.8"/>
	<path class="st0" d="M111.3,80.7c3.7-2.4,4.5-6.2,4.5-8.2c0-3.9-1.5-7-7.8-11.6l-1.5-1.1c-5.1-3.7-6.5-5.5-6.5-8.3
		c0-3.6,2.9-5.7,6.5-5.7c4.9,0,6.3,2.1,6.6,2.6c0.3,0.5,0.6,1.9,0.7,2.5c0.1,0.4,0.1,0.6,0.4,0.6c0.3,0,0.4-0.3,0.4-1.1
		c0-3.4,0.2-5,0.2-5.2c0-0.2-0.1-0.3-0.5-0.3c-0.4,0-0.8,0-1.9-0.2c-1.3-0.3-2.9-0.5-4.9-0.5c-6.7,0-11,3.6-11,8.9
		c0,3.4,1.3,6.4,6.9,10.7l2.4,1.8c4.6,3.5,6.1,5.5,6.1,8.9c0,3.2-2.5,6.6-7.6,6.6c-3.6,0-7.1-1.4-7.9-5c-0.2-0.7-0.2-1.4-0.2-1.8
		c0-0.4-0.1-0.5-0.4-0.5c-0.3,0-0.4,0.2-0.4,0.8c-0.1,0.8-0.3,2.8-0.3,5.2c0,1.3,0.1,1.5,0.8,1.9c2.2,1,4.6,1.3,7.1,1.3
		C106.2,82.8,109,82.2,111.3,80.7"/>
	<path class="st0" d="M20.5,41c2.7,0,6.8-0.6,9.7-2.4c0.6-0.4,0.6-0.5,0.6-2.8v-5.9c0-2.2,0-3.8,0.1-5.4c0.1-1.8,0.5-2.7,1.7-3
		c0.6-0.1,0.8-0.2,1.1-0.2c0.2,0,0.4-0.1,0.4-0.3c0-0.3-0.2-0.4-0.7-0.4c-1.4,0-4.3,0.2-4.5,0.2c-0.2,0-3.1-0.2-5.2-0.2
		c-0.5,0-0.7,0.1-0.7,0.4c0,0.2,0.2,0.3,0.4,0.3c0.4,0,1.2,0.1,1.6,0.2c1.8,0.6,2.1,1.1,2.1,5.4v8.9c0,0.9-0.3,1.5-0.9,1.8
		c-1.2,0.8-3.6,1.1-5.2,1.1c-4.2,0-8.4-1.6-12-5.6C7.2,31.3,4,26,4,18.6C4,12.5,5.9,7.8,8.5,5.4c3.5-3.1,6.9-3.4,9.8-3.4
		c5.9,0,9.6,2.3,10.8,4.2c0.7,1.3,0.9,2.7,1,3.5c0.1,0.5,0.1,0.8,0.3,0.8c0.3,0,0.4-0.3,0.4-1.1c0-5.2,0.3-6.7,0.3-7.4
		c0-0.2-0.1-0.4-0.5-0.5c-1.1-0.1-2.8-0.3-3.7-0.5C26,0.7,22.7,0,19.8,0c-3.5,0-8.1,0.4-12.2,3.3C3.6,6.2,0,12.1,0,20.5
		C0,27,2.7,32.6,5.5,35.4C10.5,40.4,17,41,20.5,41"/>
	<path class="st0" d="M249.6,61.6c0.2,0,0.3,0,0.4,0c0.4,0.1,0.5,0.3,0.5,0.7c0,0.4,0,0.7,0,2.6v2.2c0,1.2,0,2.1-0.1,2.7
		c0,0.4-0.1,0.6-0.4,0.7c-0.1,0-0.3,0.1-0.4,0.1c-0.2,0-0.2,0-0.2,0.1c0,0.1,0.1,0.1,0.2,0.1c0.3,0,0.6,0,0.9,0c0.3,0,0.6,0,0.7,0
		c0.5,0,1,0,1.5,0c0.6,0,1.2,0,2.1,0c0.6,0,0.7-0.1,0.8-0.3c0.1-0.4,0.2-1.3,0.2-1.4c0-0.2,0-0.2-0.1-0.2c-0.1,0-0.1,0.1-0.1,0.2
		c0,0.2-0.2,0.6-0.3,0.7c-0.3,0.3-0.8,0.4-1.5,0.4c-1,0-1.3-0.1-1.5-0.3c-0.3-0.2-0.3-1.1-0.3-2.7V65c0-1.9,0-2.2,0-2.6
		c0-0.4,0.1-0.7,0.5-0.7c0.2,0,0.3,0,0.5,0c0.2,0,0.2,0,0.2-0.1c0-0.1-0.1-0.1-0.3-0.1c-0.5,0-1.4,0-1.7,0c-0.3,0-1.1,0-1.7,0
		c-0.2,0-0.3,0-0.3,0.1C249.4,61.6,249.5,61.6,249.6,61.6"/>
	<path class="st0" d="M259.6,61.6c0.2,0,0.3,0,0.4,0c0.4,0.1,0.5,0.3,0.5,0.7c0,0.4,0,0.7,0,2.6v2.2c0,1.2,0,2.1-0.1,2.7
		c0,0.4-0.1,0.6-0.4,0.7c-0.1,0-0.3,0.1-0.4,0.1c-0.2,0-0.2,0-0.2,0.1c0,0.1,0.1,0.1,0.2,0.1c0.3,0,0.6,0,0.9,0c0.3,0,0.6,0,0.7,0
		c0.5,0,1,0,1.5,0c0.6,0,1.2,0,2.1,0c0.6,0,0.7-0.1,0.8-0.3c0.1-0.4,0.2-1.3,0.2-1.4c0-0.2,0-0.2-0.1-0.2c-0.1,0-0.1,0.1-0.1,0.2
		c0,0.2-0.2,0.6-0.3,0.7c-0.3,0.3-0.8,0.4-1.5,0.4c-1,0-1.3-0.1-1.5-0.3c-0.3-0.2-0.3-1.1-0.3-2.7V65c0-1.9,0-2.2,0-2.6
		c0-0.4,0.1-0.7,0.5-0.7c0.1,0,0.3,0,0.5,0c0.2,0,0.2,0,0.2-0.1c0-0.1-0.1-0.1-0.3-0.1c-0.5,0-1.4,0-1.7,0c-0.3,0-1.1,0-1.7,0
		c-0.2,0-0.3,0-0.3,0.1C259.4,61.6,259.5,61.6,259.6,61.6"/>
	<path class="st0" d="M269.5,61.7c0.2,0,0.4,0,0.5,0c0.4,0.1,0.5,0.3,0.5,0.7c0,0.4,0,0.7,0,2.6v2.2c0,1.1,0,2.1-0.1,2.7
		c0,0.4-0.1,0.6-0.4,0.7c-0.1,0-0.3,0.1-0.4,0.1c-0.2,0-0.2,0-0.2,0.1c0,0.1,0.1,0.1,0.2,0.1c0.5,0,1.3,0,1.6,0c0.3,0,1.1,0,1.9,0
		c0.1,0,0.2,0,0.2-0.1c0-0.1-0.1-0.1-0.2-0.1c-0.2,0-0.5,0-0.6-0.1c-0.4-0.1-0.4-0.3-0.5-0.7c-0.1-0.5-0.1-1.5-0.1-2.7v-5
		c0-0.1,0-0.2,0.1-0.2c0.1,0,0.3,0,0.5,0c0.3,0,0.8,0.1,1.2,0.5c0.7,0.6,0.7,1.5,0.7,1.9c0,1.3-1,2.1-1.7,2.1c-0.3,0-0.3,0-0.3,0.1
		c0,0.1,0.1,0.1,0.2,0.1c0.1,0,0.2,0,0.3,0c1.8,0,3.1-1.2,3.1-3c0-0.7-0.3-1.2-0.6-1.5c-0.2-0.2-0.8-0.7-2.3-0.7c-0.6,0-1.3,0-1.8,0
		c-0.3,0-1.1,0-1.8,0c-0.2,0-0.3,0-0.3,0.1C269.2,61.6,269.3,61.7,269.5,61.7"/>
</g>
<g>
	<defs>
		<rect id="SVGID_1_" width="276.1" height="97.1"/>
	</defs>
	<clipPath id="SVGID_2_">
		<use xlink:href="#SVGID_1_"  style="display:none;overflow:visible;"/>
	</clipPath>
	<g class="st1">
		<path class="st2" d="M26.3,88.6c-0.4,0-0.7,0-0.9,0l-0.2,0l-0.4,0c-0.3,0-0.6,0-1,0c-0.1,0-0.4,0-0.4,0.2c0,0.1,0,0.2,0.3,0.2
			c0.1,0,0.4,0,0.6,0.1c0.2,0.1,0.3,0.2,0.3,0.9l0.2,4.6l0,0.2c-0.1-0.1-0.4-0.4-0.9-0.9c-0.5-0.5-1.1-1.2-1.6-1.6
			c-1.3-1.3-2.7-2.6-3.2-3.2l-0.3-0.3c-0.4-0.4-0.8-0.4-0.8,0.1l-0.1,6.4c0,0.9-0.1,1.2-0.3,1.2c-0.2,0-0.4,0-0.5,0
			c-0.1,0-0.3,0.1-0.3,0.2c0,0.2,0.2,0.2,0.3,0.2c0.4,0,0.8,0,1,0l0.2,0l0.3,0c0.3,0,0.7,0,1.1,0c0.1,0,0.3,0,0.3-0.2
			c0-0.1-0.1-0.2-0.3-0.2c-0.1,0-0.4,0-0.6-0.1c-0.1-0.1-0.3-0.2-0.3-1.1L19,91.7l0-0.6c0.1,0.1,0.3,0.3,0.6,0.6
			c0.5,0.5,1.3,1.3,2,2.1c1.2,1.1,2.6,2.5,3.3,3.1C25,97,25.2,97,25.4,97c0.1,0,0.3-0.1,0.3-0.4l0.1-6.8c0-0.6,0.1-0.7,0.3-0.8
			c0.1,0,0.2,0,0.3,0c0.2,0,0.3-0.1,0.3-0.2C26.7,88.6,26.5,88.6,26.3,88.6z"/>
		<path class="st2" d="M42,96.5c-0.2,0-0.5,0-0.6-0.1c-0.3,0-0.4-0.2-0.4-0.6c-0.1-0.5-0.1-1.5-0.1-2.8v-2.2c0-1.9,0-2.3,0-2.7
			c0-0.4,0.1-0.6,0.4-0.7c0.1,0,0.2,0,0.4,0c0.1,0,0.3,0,0.3-0.2c0-0.2-0.2-0.2-0.3-0.2c-0.3,0-0.6,0-0.9,0c-0.6,0-0.8,0-1.3,0
			c-0.3,0-0.7,0-0.9,0c-0.1,0-0.4,0-0.4,0.2c0,0.2,0.2,0.2,0.3,0.2c0.2,0,0.3,0,0.4,0c0.2,0.1,0.3,0.2,0.4,0.6c0,0.4,0,0.8,0,2.7
			v2.2c0,1.2,0,2.2-0.1,2.8c0,0.4-0.1,0.5-0.3,0.6c-0.2,0-0.7,0-0.7,0.2c0,0.1,0.1,0.2,0.3,0.2c0.3,0,0.7,0,1,0c0.5,0,0.7,0,1.2,0
			c0.4,0,0.9,0,1.4,0c0.3,0,0.3-0.1,0.3-0.2C42.3,96.6,42.3,96.5,42,96.5z"/>
		<path class="st2" d="M57.5,96.5c-0.1,0-0.3,0-0.6-0.1c-0.3-0.1-0.4-0.3-0.5-1l-1-6.7c-0.1-0.5-0.4-0.7-0.7-0.1l-1.8,3.8l-1.1,2.2
			l-3-6c-0.2-0.3-0.2-0.4-0.4-0.4c-0.1,0-0.3,0.1-0.3,0.3l-1.1,7c0,0.3-0.1,0.7-0.4,0.8c-0.2,0-0.2,0-0.3,0c-0.2,0-0.3,0.1-0.3,0.2
			c0,0.1,0,0.2,0.3,0.2c0.2,0,0.5,0,0.7,0c0.3,0,0.4,0,0.8,0c0.2,0,0.5,0,0.8,0c0.1,0,0.3,0,0.3-0.2c0-0.2-0.2-0.1-0.6-0.2
			c-0.2,0-0.3-0.1-0.3-0.2c0-0.2,0-0.3,0-0.5l0.3-3.1l0.1-1c0.4,0.8,1,2.1,1.1,2.3c0.1,0.2,0.5,1,1.3,2.4c0.2,0.4,0.3,0.6,0.5,0.6
			c0.2,0,0.3-0.1,0.5-0.6l1.7-3.5l0.6-1.3l0.6,4.6c0,0.3,0,0.4,0,0.4c-0.1,0-0.2,0.1-0.2,0.2c0,0.2,0.2,0.2,0.4,0.2
			c0.4,0,2,0.1,2.3,0.1c0.3,0,0.4-0.1,0.4-0.2C57.7,96.6,57.6,96.5,57.5,96.5z"/>
		<path class="st2" d="M71.6,96.4c-0.3-0.1-0.4-0.3-0.5-1l-1-6.7c-0.1-0.5-0.5-0.5-0.7-0.1l-1.8,3.8l-1.1,2.2l-3-6
			c-0.2-0.3-0.2-0.4-0.4-0.4c-0.1,0-0.3,0.1-0.3,0.3l-1.1,7c-0.1,0.5-0.2,0.7-0.4,0.8c-0.2,0-0.2,0-0.3,0c-0.2,0-0.3,0.1-0.3,0.2
			c0,0.1,0,0.2,0.3,0.2c0.2,0,0.5,0,0.7,0c0.3,0,0.4,0,0.8,0c0.2,0,0.5,0,0.8,0c0.1,0,0.3,0,0.3-0.2c0-0.2-0.2-0.1-0.6-0.2
			c-0.2,0-0.3-0.1-0.3-0.2c0-0.2,0-0.3,0-0.5l0.3-3.1l0.1-1c0.4,0.8,1,2.1,1.1,2.3c0.1,0.3,0.8,1.5,1.3,2.4c0.2,0.4,0.3,0.6,0.5,0.6
			c0.2,0,0.3-0.1,0.5-0.6l1.7-3.5l0.6-1.3l0.6,4.6c0,0.3,0,0.4,0,0.4c-0.1,0-0.2,0.1-0.2,0.2c0,0.2,0.2,0.2,0.4,0.2
			c0.4,0,2,0.1,2.3,0.1c0.3,0,0.4-0.1,0.4-0.2C72.5,96.5,72.2,96.6,71.6,96.4z"/>
		<path class="st2" d="M79.3,96.5c-0.3,0-0.3-0.2-0.4-0.4c-0.1-0.5-0.1-1.3-0.1-2.3v-1.9c0-1.6,0-1.9,0-2.3c0-0.4,0.1-0.5,0.4-0.5
			c0.3-0.1,0.6,0,0.6-0.2c0-0.2-0.2-0.2-0.3-0.2c-0.2,0-0.6,0-0.9,0l-0.6,0l-0.6,0c-0.3,0-0.6,0-0.8,0c-0.1,0-0.3,0-0.3,0.2
			c0,0.2,0.2,0.2,0.3,0.2c0.2,0,0.3,0,0.4,0c0.2,0.1,0.3,0.2,0.3,0.5c0,0.3,0,0.6,0,2.3v1.9c0,1,0,1.9-0.1,2.3
			c0,0.3-0.1,0.4-0.3,0.5c-0.1,0-0.2,0-0.4,0c-0.2,0-0.3,0.1-0.3,0.2c0,0.1,0,0.2,0.3,0.2c0.3,0,0.6,0,0.9,0c0.5,0,0.6,0,1.1,0
			c0.4,0,0.8,0,1.3,0c0.2,0,0.3-0.1,0.3-0.2C80.1,96.5,79.6,96.6,79.3,96.5z"/>
		<path class="st2" d="M92.8,92.7c-0.2,0-0.4,0-0.7,0c-0.2,0-0.5,0-0.6,0l-0.6,0c-0.3,0-0.7,0-1.1,0c-0.1,0-0.3,0-0.3,0.2
			c0,0.2,0.5,0.2,0.7,0.2c0.3,0.1,0.4,0.2,0.4,0.5c0,0.3,0,0.7,0,1.3v1c0,0.2,0,0.3-0.2,0.3c-0.3,0.1-0.5,0.1-0.8,0.1
			c-2.3,0-3.8-1.6-3.8-3.9c0-1.2,0.3-2,1-2.6c0.8-0.6,1.5-0.6,2.1-0.6c1.2,0,2,0.4,2.4,0.8c0.3,0.3,0.3,0.6,0.4,0.8
			c0,0.1,0,0.2,0.2,0.2c0.1,0,0.2-0.1,0.2-0.3c0-1,0-1.4,0.1-1.8c0-0.2-0.1-0.2-0.2-0.2c-0.3,0-0.7-0.1-0.9-0.1
			c-0.2-0.1-1.2-0.2-2-0.2c-0.9,0-1.9,0.1-3,0.7c-1.2,0.7-2,2.1-2,3.6c0,3.2,2.7,4.3,5.2,4.3c0.5,0,1.9,0,2.8-0.5
			c0.2-0.1,0.2-0.2,0.2-0.4v-1.2c0-0.5,0-1,0-1.3c0-0.3,0.1-0.5,0.4-0.5c0.3-0.1,0.5,0,0.5-0.2C93.1,92.7,92.9,92.7,92.8,92.7z"/>
		<path class="st2" d="M105.7,96.5c-0.2,0-0.6-0.1-1.1-0.7c-0.6-0.6-1.4-1.5-2.3-2.7l-0.2-0.1h0c1.1-0.9,1.6-1.6,1.6-2.4
			c0-0.8-0.5-1.3-0.8-1.5c-0.6-0.4-1.5-0.5-2.2-0.5l-0.8,0c-0.4,0-0.7,0-0.9,0l-0.4,0c-0.3,0-0.7,0-1.1,0c-0.1,0-0.3,0-0.3,0.2
			c0,0.1,0.1,0.2,0.3,0.2c0.2,0,0.3,0,0.4,0c0.3,0.1,0.4,0.2,0.4,0.5c0,0.3,0,0.6,0,2.3v1.9c0,1,0,1.8-0.1,2.3
			c0,0.3-0.1,0.5-0.3,0.5c-0.1,0-0.2,0-0.4,0c-0.2,0-0.3,0.1-0.3,0.2c0,0.1,0,0.2,0.3,0.2c0.3,0,0.6,0,0.9,0c0.2,0,0.4,0,0.5,0
			l0.4,0c0.4,0,0.9,0,1.4,0c0.3,0,0.3-0.1,0.3-0.2c0-0.2-0.4-0.2-0.7-0.2c-0.3,0-0.3-0.2-0.4-0.5c0-0.4-0.1-1.1-0.1-2.3l0-0.2l1,0
			c0.1,0,0.1,0,0.1,0.1c0.1,0.1,0.2,0.3,0.3,0.5c0.2,0.3,0.5,0.7,0.7,1c0.7,0.9,1.1,1.4,1.5,1.6c0.3,0.2,0.6,0.2,1.3,0.2h1.1
			c0.1,0,0.3,0,0.3-0.2C106.2,96.6,106,96.6,105.7,96.5z M101.4,92.7c-0.2,0.1-0.3,0.2-0.7,0.2c-0.3,0-0.6,0-0.9-0.2l0-3.3
			c0.1,0,0.4,0,0.6,0c0.7,0,1.6,0.5,1.6,1.8C102.1,92,101.7,92.5,101.4,92.7z"/>
		<path class="st2" d="M116.7,96.5c-0.1,0-0.2,0-0.4,0c-0.2,0-0.5-0.2-0.9-1.1c-0.4-0.8-1-2.4-1.6-3.8c-0.6-1.3-1.1-2.5-1.2-2.8
			c-0.1-0.2-0.2-0.4-0.4-0.4c-0.2,0-0.3,0.2-0.4,0.5l-2.9,6.8c-0.2,0.6-0.4,0.8-0.9,0.9l-0.3,0c-0.1,0-0.2,0.1-0.2,0.2
			c0,0.2,0.2,0.2,0.3,0.2c0.4,0,0.8,0,1.1,0l0.2,0c0.2,0,0.4,0,0.6,0c0.4,0,0.9,0.1,0.9-0.2c0-0.1,0-0.2-0.2-0.2h-0.2
			c-0.3,0-0.4-0.1-0.4-0.2c0-0.1,0-0.4,0.2-0.6l0.6-1.5l2.7,0l0.8,2.3c-0.1,0-0.2,0-0.2,0.2c0,0.1,0.2,0.1,0.4,0.2
			c0.9,0,1.8,0,2.1,0c0.4,0,0.6,0,0.6-0.2C116.9,96.7,116.9,96.5,116.7,96.5z M110.8,93.5l1.1-2.7l1.1,2.7L110.8,93.5z"/>
		<path class="st2" d="M126.1,88.6l-0.2,0c-0.2,0-0.4,0.1-0.7,0.1h-4.5c-0.4,0-0.8,0-1.1-0.1c-0.2,0-0.3-0.1-0.3-0.1l-0.2,0
			c-0.2,0-0.2,0.2-0.2,0.3c0,0.1-0.2,1.1-0.2,1.3c0,0.2,0.1,0.3,0.2,0.3c0.1,0,0.2-0.1,0.2-0.2c0-0.1,0.1-0.2,0.2-0.3
			c0.1-0.2,0.4-0.3,1-0.3l1.5-0.1l0,0v4.4c0,1,0,1.8-0.1,2.3c0,0.3-0.1,0.5-0.3,0.5c-0.1,0-0.2,0-0.4,0c-0.2,0-0.3,0.1-0.3,0.2
			c0,0.1,0,0.2,0.3,0.2c0.3,0,0.6,0,0.9,0c0.5,0,0.7,0,1.1,0c0.4,0,0.8,0,1.2,0c0.3,0,0.3-0.1,0.3-0.2c0-0.2-0.5-0.2-0.8-0.2
			c-0.3,0-0.3-0.2-0.4-0.5c0-0.4-0.1-1.1-0.1-2.3l-0.1-4.2v-0.1l1.4,0c1.1,0,1.2,0.4,1.3,0.7c0,0.1,0,0.3,0.2,0.3
			c0.1,0,0.2-0.2,0.2-0.3c0-0.1,0-0.4,0-0.7l0-0.6C126.3,88.7,126.3,88.6,126.1,88.6z"/>
		<path class="st2" d="M133.4,96.5c-0.3,0-0.3-0.2-0.4-0.4c-0.1-0.5-0.1-1.3-0.1-2.3v-1.9c0-1.6,0-1.9,0-2.3c0-0.4,0.1-0.5,0.4-0.5
			c0.3-0.1,0.6,0,0.6-0.2c0-0.2-0.2-0.2-0.3-0.2c-0.2,0-0.6,0-0.9,0l-0.6,0l-0.6,0c-0.3,0-0.6,0-0.8,0c-0.1,0-0.3,0-0.3,0.2
			c0,0.2,0.2,0.2,0.3,0.2c0.2,0,0.3,0,0.4,0c0.2,0.1,0.3,0.2,0.3,0.5c0,0.3,0,0.6,0,2.3v1.9c0,1,0,1.9-0.1,2.3
			c0,0.3-0.1,0.4-0.3,0.5c-0.1,0-0.2,0-0.4,0c-0.2,0-0.2,0.1-0.2,0.2c0,0.1,0,0.2,0.3,0.2c0.3,0,0.6,0,0.9,0c0.5,0,0.6,0,1.1,0
			c0.4,0,0.8,0,1.3,0c0.2,0,0.3-0.1,0.3-0.2C134.2,96.5,133.7,96.6,133.4,96.5z"/>
		<path class="st2" d="M142.9,88.5c-3.3,0-4.7,2.2-4.7,4.3c0,2.1,1.5,4.3,4.6,4.3c2.8,0,4.7-1.8,4.7-4.5
			C147.5,90,145.8,88.5,142.9,88.5z M143.2,96.3c-1.9,0-3.3-1.6-3.3-3.9c0-2.8,1.6-3.2,2.6-3.2c1.9,0,3.2,1.6,3.2,3.8
			C145.7,96,144,96.3,143.2,96.3z"/>
		<path class="st2" d="M160.5,88.6c-0.4,0-0.7,0-0.9,0l-0.2,0l-0.4,0c-0.3,0-0.6,0-1,0c-0.1,0-0.4,0-0.4,0.2c0,0.1,0,0.2,0.3,0.2
			c0.1,0,0.4,0,0.6,0.1c0.2,0.1,0.3,0.2,0.3,0.9l0.2,4.6l0,0.2c-0.1-0.1-0.4-0.4-0.9-0.9c-0.5-0.5-1.1-1.2-1.6-1.6
			c-1.3-1.3-2.7-2.6-3.2-3.2l-0.3-0.3c-0.4-0.4-0.8-0.4-0.8,0.1l-0.1,6.4c0,0.9-0.1,1.2-0.3,1.2c-0.2,0-0.4,0-0.5,0
			c-0.1,0-0.3,0.1-0.3,0.2c0,0.2,0.2,0.2,0.3,0.2c0.4,0,0.8,0,1,0l0.2,0l0.3,0c0.3,0,0.7,0,1.1,0c0.1,0,0.3,0,0.3-0.2
			c0-0.1-0.1-0.2-0.3-0.2c-0.1,0-0.4,0-0.6-0.1c-0.1-0.1-0.3-0.2-0.3-1.1l-0.2-3.7l0-0.6c0.1,0.1,0.3,0.3,0.6,0.6
			c0.5,0.5,1.3,1.3,2,2.1c1.2,1.1,2.6,2.5,3.3,3.1c0.2,0.2,0.3,0.3,0.5,0.3c0.1,0,0.3-0.1,0.3-0.4l0.1-6.8c0-0.6,0.1-0.7,0.3-0.8
			c0.1,0,0.2,0,0.3,0c0.2,0,0.3-0.1,0.3-0.2C160.8,88.6,160.6,88.6,160.5,88.6z"/>
		<path class="st2" d="M178.7,94.8c-0.2,0-0.2,0.2-0.2,0.3c0,0.2-0.2,0.6-0.3,0.7c-0.3,0.3-0.7,0.3-1.4,0.3c-1,0-1.3-0.1-1.5-0.3
			c-0.2-0.2-0.2-1.1-0.2-2.7v-2.2c0-1.9,0-2.3,0-2.7c0-0.4,0.1-0.6,0.4-0.7c0.1,0,0.3,0,0.5,0c0.1,0,0.3,0,0.3-0.2
			c0-0.2-0.2-0.2-0.3-0.2c-0.3,0-0.7,0-1.1,0c-0.6,0-0.8,0-1.3,0c-0.3,0-0.8,0-1.1,0c-0.1,0-0.4,0-0.4,0.2c0,0.2,0.2,0.2,0.3,0.2
			c0.2,0,0.3,0,0.4,0c0.4,0.1,0.5,0.2,0.5,0.7c0,0.4,0,0.8,0,2.7v2.2c0,1.2,0,2.2-0.1,2.7c-0.1,0.4-0.1,0.6-0.3,0.6
			c-0.3,0.1-0.7,0-0.7,0.2c0,0.2,0.3,0.2,0.7,0.2c0.2,0,0.3,0,0.5,0c0.3,0,0.6,0,0.7,0h0c0.5,0,1,0,1.5,0l0.5,0c0.5,0,1,0,1.7,0
			c0.6,0,0.8-0.1,0.9-0.4c0.1-0.4,0.2-1.3,0.2-1.5C178.9,95,178.9,94.8,178.7,94.8z"/>
		<path class="st2" d="M190.8,96.5c-0.1,0-0.2,0-0.4,0c-0.2,0-0.5-0.2-0.9-1.1c-0.4-0.8-1-2.4-1.6-3.7c-0.6-1.4-1.1-2.6-1.2-2.9
			c-0.1-0.2-0.2-0.4-0.4-0.4c-0.2,0-0.3,0.2-0.4,0.5l-2.9,6.8c-0.2,0.6-0.4,0.8-0.9,0.9l-0.3,0c-0.1,0-0.2,0.1-0.2,0.2
			c0,0.2,0.2,0.2,0.3,0.2c0.4,0,0.8,0,1.1,0l0.2,0c0.2,0,0.4,0,0.6,0c0.4,0,0.9,0.1,0.9-0.2c0-0.1,0-0.2-0.2-0.2h-0.2
			c-0.3,0-0.4-0.1-0.4-0.2c0-0.1,0-0.4,0.2-0.6l0.6-1.5l2.7,0l0.8,2.3c-0.1,0-0.2,0-0.2,0.2c0,0.1,0.2,0.1,0.4,0.2
			c0.9,0,1.7,0,2.1,0c0.4,0,0.6,0,0.6-0.2C191,96.7,191,96.5,190.8,96.5z M184.9,93.5l1.1-2.7l1.1,2.7L184.9,93.5z"/>
		<path class="st2" d="M204.3,88.6l-0.2,0l-0.2,0c-0.2,0-0.6,0-1,0c-0.1,0-0.3,0-0.3,0.2c0,0.1,0.1,0.2,0.3,0.2
			c0.5,0,0.5,0.1,0.5,0.2c0,0.2,0,0.4-0.1,0.6c-0.2,0.5-0.4,1.2-0.6,2c-0.3,1.1-0.6,2.1-0.7,2.6c0,0,0,0.1,0,0.1l-2.2-5.3
			c-0.3-0.7-0.6-0.7-0.8-0.1l-1.5,4.2l-0.5,1.3c-0.2-0.5-1.2-3.7-1.4-4.5c-0.1-0.4-0.2-0.8-0.2-0.9c0-0.1,0-0.1,0.1-0.1
			c0.2-0.1,0.5-0.1,0.5-0.2c0-0.2-0.2-0.2-0.3-0.2c-0.5,0-0.9,0-1.1,0l-0.2,0l-0.2,0c-0.3,0-0.7,0-1.1,0c-0.1,0-0.3,0-0.3,0.2
			c0,0,0,0.2,0.3,0.2c0.1,0,0.3,0,0.4,0.1c0.1,0.1,0.2,0.3,0.4,0.7l2.4,6.8c0.1,0.3,0.2,0.4,0.4,0.4c0.2,0,0.3-0.2,0.5-0.6
			c0.3-0.7,1.2-3,1.8-4.3c0.2-0.4,0.3-0.7,0.3-0.9c0,0,0,0,0-0.1l2.3,5.3c0.2,0.4,0.3,0.6,0.5,0.6c0.2,0,0.3-0.2,0.4-0.6l0.4-1.1
			c0.6-1.8,1.4-4.2,1.8-5.3l0.1-0.2c0.2-0.5,0.3-0.9,0.5-0.9c0.4-0.1,0.6-0.1,0.6-0.2C205.3,88.5,204.6,88.6,204.3,88.6z"/>
		<path class="st2" d="M221.8,87.1c-0.1,0-0.1,0-0.2,0.1c-0.1,0-0.2,0-0.5,0c-0.3,0-2.8,0-3.3,0c-0.2,0-0.4,0-0.7,0l-1.2,0
			c-0.1,0-0.4,0-0.4,0.2c0,0.1,0.1,0.2,0.3,0.2c0.2,0,0.4,0,0.5,0c0.4,0.1,0.5,0.2,0.5,0.7c0,0.4,0,0.8,0,2.7v2.2
			c0,1.2,0,2.2-0.1,2.7c-0.1,0.4-0.1,0.6-0.3,0.6c-0.1,0-0.3,0-0.4,0c-0.2,0-0.3,0.1-0.3,0.2c0,0.2,0.2,0.2,0.3,0.2
			c0.3,0,0.6,0,0.9,0c0.5,0,0.7,0,1.2,0c0.4,0,0.9,0,1.4,0c0.1,0,0.4,0,0.4-0.2c0-0.2-0.2-0.2-0.3-0.2c-0.2,0-0.4,0-0.6-0.1
			c-0.3,0-0.4-0.2-0.4-0.6c-0.1-0.5-0.1-1.5-0.1-2.7l0-1.1c0.5,0,1.6,0,1.9,0c0.4,0.1,0.6,0.3,0.6,0.4c0.1,0.1,0.1,0.3,0.1,0.4
			c0,0.2,0.1,0.3,0.2,0.3c0.2,0,0.2-0.2,0.2-0.3c0-0.1,0-0.7,0.1-0.9c0-0.2,0.1-0.4,0.1-0.6c0-0.1,0-0.2,0-0.2l-0.1-0.2h-0.1
			c-0.1,0-0.1,0.1-0.2,0.2c-0.1,0.1-0.2,0.2-0.5,0.2c-0.2,0-0.4,0.1-0.6,0l-1.6,0l0-3.3l2,0c0.4,0,0.7,0.2,0.8,0.3
			c0.1,0.2,0.1,0.4,0.1,0.5c0,0.1,0,0.3,0.2,0.3c0.2,0,0.2-0.2,0.2-0.2c0-0.1,0-0.4,0-0.7l0-0.3c0-0.2,0.1-0.3,0.1-0.4
			c0-0.1,0-0.1,0-0.2L221.8,87.1L221.8,87.1z"/>
		<path class="st2" d="M229.3,96.5c-0.3,0-0.3-0.2-0.4-0.4c-0.1-0.5-0.1-1.3-0.1-2.3v-1.9c0-1.6,0-1.9,0-2.3c0-0.4,0.1-0.5,0.4-0.5
			c0.3-0.1,0.6,0,0.6-0.2c0-0.2-0.2-0.2-0.3-0.2c-0.2,0-0.6,0-0.9,0l-0.6,0l-0.6,0c-0.3,0-0.6,0-0.8,0c-0.1,0-0.3,0-0.3,0.2
			c0,0.3,0.4,0.2,0.6,0.2c0.2,0.1,0.3,0.2,0.3,0.5c0,0.3,0,0.6,0,2.3v1.9c0,1,0,1.9-0.1,2.3c0,0.3-0.1,0.4-0.3,0.5
			c-0.1,0-0.2,0-0.4,0c-0.2,0-0.3,0.1-0.3,0.2c0,0.1,0,0.2,0.3,0.2c0.3,0,0.6,0,0.9,0c0.5,0,0.6,0,1.1,0c0.4,0,0.8,0,1.3,0
			c0.3,0,0.3-0.1,0.3-0.2C230.1,96.5,229.6,96.6,229.3,96.5z"/>
		<path class="st2" d="M242.9,96.5c-0.2,0-0.6-0.1-1.1-0.7c-0.6-0.6-1.4-1.6-2.3-2.7l-0.1,0h0c1.1-0.9,1.6-1.6,1.6-2.4
			c0-0.8-0.5-1.3-0.8-1.5c-0.6-0.4-1.5-0.5-2.2-0.5l-0.8,0c-0.4,0-0.7,0-0.9,0l-0.4,0c-0.3,0-0.7,0-1.1,0c-0.1,0-0.3,0-0.3,0.2
			c0,0.1,0.1,0.2,0.3,0.2c0.2,0,0.4,0,0.4,0c0.3,0.1,0.4,0.2,0.4,0.5c0,0.3,0,0.6,0,2.3v1.9c0,1,0,1.8-0.1,2.3
			c0,0.3-0.1,0.5-0.3,0.5c-0.1,0-0.2,0-0.4,0c-0.2,0-0.3,0.1-0.3,0.2c0,0.1,0,0.2,0.3,0.2s0.6,0,0.9,0c0.2,0,0.4,0,0.5,0l0.4,0
			c0.4,0,0.9,0,1.4,0c0.3,0,0.3-0.1,0.3-0.2c0-0.2-0.4-0.2-0.7-0.2c-0.3,0-0.3-0.2-0.4-0.5c0-0.4-0.1-1.1-0.1-2.3l0-0.2l1,0
			c0.1,0,0.1,0,0.1,0.1c0.1,0.1,0.2,0.3,0.3,0.5c0.2,0.3,0.5,0.7,0.7,1c0.7,0.9,1.1,1.4,1.5,1.6c0.3,0.2,0.6,0.2,1.3,0.2h1.1
			c0.1,0,0.3,0,0.3-0.2C243.3,96.6,243.2,96.6,242.9,96.5z M238.6,92.7c-0.2,0.1-0.3,0.2-0.7,0.2c-0.3,0-0.6,0-0.9-0.2l0-3.3
			c0.1,0,0.4,0,0.6,0c0.7,0,1.6,0.5,1.6,1.8C239.3,92,238.9,92.5,238.6,92.7z"/>
		<path class="st2" d="M256.3,96.4c-0.3-0.1-0.4-0.3-0.5-1l-1-6.7c-0.1-0.5-0.5-0.5-0.7-0.1l-1.8,3.8l-1.1,2.2l-3-6
			c-0.2-0.3-0.2-0.4-0.4-0.4c-0.1,0-0.3,0.1-0.3,0.3l-1.1,7c0,0.3-0.1,0.7-0.4,0.8c-0.2,0-0.2,0-0.3,0c-0.2,0-0.3,0.1-0.3,0.2
			c0,0.1,0,0.2,0.3,0.2c0.2,0,0.5,0,0.7,0c0.3,0,0.4,0,0.8,0c0.2,0,0.5,0,0.8,0c0.1,0,0.3,0,0.3-0.2c0-0.2-0.2-0.1-0.6-0.2
			c-0.2,0-0.3-0.1-0.3-0.2c0-0.2,0-0.3,0-0.5l0.3-3.1l0.1-1c0.4,0.8,1,2.1,1.1,2.3c0.1,0.3,0.8,1.5,1.3,2.4c0.2,0.4,0.3,0.6,0.5,0.6
			c0.2,0,0.3-0.1,0.5-0.6l1.6-3.5l0.7-1.3l0.6,4.6c0,0.3,0,0.4,0,0.4c-0.1,0-0.2,0.1-0.2,0.2c0,0.2,0.2,0.2,0.4,0.2
			c0.4,0,2,0.1,2.3,0.1c0.3,0,0.4-0.1,0.4-0.2C257.2,96.5,257,96.6,256.3,96.4z M251.2,94.8l-1.1-2.2L251.2,94.8L251.2,94.8z"/>
		<rect x="5.3" y="79.4" class="st2" width="80.6" height="1.1"/>
		<rect x="122.7" y="79.4" class="st2" width="152.6" height="1.1"/>
		<path class="st2" d="M14.1,96.5c-0.1,0-0.3,0-0.5,0c-0.3-0.1-0.6-0.3-1.1-1.3c-0.4-1.1-1.3-3.1-2-4.9c-0.6-1.4-1-2.6-1.2-2.9
			c-0.2-0.5-0.5-0.6-0.8,0.1l-3.2,8c-0.3,0.7-0.5,1-1,1.1c-0.1,0-0.3,0-0.4,0c-0.2,0-0.2,0.1-0.2,0.2c0,0.2,0.2,0.2,0.3,0.2
			c0.5,0,0.9,0,1.2,0l0.3,0c0.2,0,0.4,0,0.7,0c0.2,0,0.5,0,0.7,0c0.1,0,0.3,0,0.3-0.2c0-0.2-0.2-0.2-0.3-0.2H6.8
			c-0.4,0-0.4-0.2-0.4-0.3c0-0.1,0.1-0.4,0.2-0.7l0.7-1.9l2.9,0l1,2.7l-0.1,0.2c-0.1,0-0.2,0-0.2,0.2c0,0.2,0.2,0.2,0.5,0.2
			c1,0,1.9,0,2.4,0c0.4,0,0.7,0,0.7-0.2C14.4,96.5,14.2,96.5,14.1,96.5z M7.6,92.9l1.2-3.1l1.2,3.1L7.6,92.9z"/>
	</g>
</g>
</svg>
